<svg width="286" height="286" viewBox="0 0 286 286" fill="none" xmlns="http://www.w3.org/2000/svg">
<circle cx="143" cy="143" r="143" fill="#434343"/>
<circle cx="142.5" cy="142.5" r="136.5" fill="#676767"/>
<path d="M91 119.963C91 117.202 93.2386 114.963 96 114.963H167.567C169.49 114.963 171.048 113.405 171.048 111.482C171.048 109.559 172.607 108 174.53 108H183.324C185.247 108 186.806 109.559 186.806 111.482C186.806 113.405 188.365 114.963 190.288 114.963H190.903C193.166 114.963 195 116.798 195 119.06V172C195 174.761 192.761 177 190 177H96C93.2386 177 91 174.761 91 172V119.963Z" fill="#474747"/>
<circle cx="143.5" cy="145.5" r="19.5" fill="#676767"/>
</svg>
