<svg width="196" height="45" viewBox="0 0 196 45" fill="none" xmlns="http://www.w3.org/2000/svg">
<path d="M40.3077 31.8077L40.3077 38.0001C40.3076 40.4853 38.2929 42.5001 35.8077 42.5001L7.00006 42.5001C4.51485 42.5001 2.50018 40.4853 2.50006 38.0001L2.50006 10.2677C2.50019 7.8169 4.46181 5.8167 6.91217 5.76868L13.5079 5.63977C16.0272 5.59039 18.0958 7.619 18.0958 10.1388L18.0958 17.6144C18.0958 18.6353 18.2612 19.6497 18.584 20.6183L18.6251 20.7413C19.6522 23.8226 22.1821 26.1655 25.3331 26.9532L25.6153 27.0236C26.3687 27.2119 27.1425 27.3077 27.919 27.3077L35.8077 27.3077C38.293 27.3077 40.3077 29.3225 40.3077 31.8077Z" stroke="white" stroke-width="5"/>
<rect x="40.3077" y="5.5" width="15.1923" height="15.1923" rx="4.5" transform="rotate(90 40.3077 5.5)" stroke="white" stroke-width="5"/>
<path d="M73.68 19.016C73.68 18.3973 73.8187 17.864 74.096 17.416C74.3947 16.9467 74.832 16.712 75.408 16.712C75.8987 16.712 76.336 16.808 76.72 17C77.104 17.192 77.296 17.512 77.296 17.96C77.296 18.8347 77.2533 20.0613 77.168 21.64C77.0827 23.176 77.04 24.3173 77.04 25.064C77.04 26.2373 77.0827 27.8053 77.168 29.768C77.2533 31.6453 77.296 33.0213 77.296 33.896C77.296 34.6 77.2853 35.1227 77.264 35.464C77.264 35.8053 77.072 36.1467 76.688 36.488C76.3253 36.808 75.76 36.968 74.992 36.968C74.5867 36.968 74.2347 36.904 73.936 36.776C73.6587 36.6267 73.4667 36.4667 73.36 36.296C72.3573 35.08 70.896 33.0107 68.976 30.088C66.8213 26.824 65.0613 24.328 63.696 22.6C63.8667 24.136 63.952 26.0133 63.952 28.232C63.952 29.2133 63.9307 30.4933 63.888 32.072C63.8667 33.6293 63.824 34.6533 63.76 35.144C63.6747 35.7627 63.4827 36.2427 63.184 36.584C62.9067 36.904 62.4587 37.064 61.84 37.064C61.3707 37.064 61.0187 36.936 60.784 36.68C60.5707 36.4027 60.4427 35.9333 60.4 35.272C60.3787 34.3973 60.432 33.0853 60.56 31.336C60.5813 31.0587 60.6133 30.5787 60.656 29.896C60.6987 29.2133 60.72 28.6053 60.72 28.072C60.72 26.6 60.6453 24.9147 60.496 23.016C60.368 20.9253 60.304 19.3787 60.304 18.376C60.304 17.864 60.4853 17.4693 60.848 17.192C61.232 16.9147 61.6693 16.776 62.16 16.776C62.5867 16.776 63.0347 16.8827 63.504 17.096C65.3387 19.4 67.824 22.8347 70.96 27.4L73.968 32.008C73.9893 31.6667 74 31.1867 74 30.568C74 29.48 73.9787 28.3067 73.936 27.048C73.8933 25.7893 73.8613 24.936 73.84 24.488C73.7333 22.4187 73.68 20.5947 73.68 19.016ZM93.9618 26.728C94.1324 27.0267 94.2711 27.464 94.3778 28.04C94.4844 28.5947 94.5378 29.096 94.5378 29.544C94.5378 30.376 94.3564 31.56 93.9938 33.096C92.5218 35.784 90.3458 37.128 87.4658 37.128C86.3991 37.128 85.3111 36.776 84.2018 36.072C83.0924 35.368 82.3244 34.5573 81.8978 33.64C81.3218 31.8053 81.0338 30.6427 81.0338 30.152C81.0338 29.2987 81.2151 28.392 81.5778 27.432C81.9618 26.472 82.4418 25.64 83.0178 24.936C83.3804 24.4453 84.0311 24.0293 84.9698 23.688C85.9084 23.3253 86.7618 23.144 87.5298 23.144C89.0231 23.144 90.2924 23.432 91.3378 24.008C92.3831 24.5627 93.2578 25.4693 93.9618 26.728ZM91.1778 31.88C91.2844 31.6027 91.3378 30.888 91.3378 29.736C91.3378 29.1173 91.2204 28.5093 90.9858 27.912C90.7724 27.3147 90.4524 26.8027 90.0258 26.376C89.9831 26.3333 89.8658 26.2693 89.6738 26.184C89.4818 26.0773 89.2151 25.9813 88.8738 25.896C88.5538 25.7893 88.1804 25.736 87.7538 25.736C86.5591 25.736 85.6844 26.216 85.1298 27.176C84.5751 28.136 84.2977 29.224 84.2977 30.44C84.2977 30.6533 84.3511 31.0587 84.4578 31.656C84.5858 32.2533 84.6924 32.6267 84.7778 32.776C84.8418 32.9253 85.0018 33.1387 85.2578 33.416C85.5351 33.672 85.8658 33.9067 86.2498 34.12C86.6551 34.312 87.0711 34.408 87.4978 34.408C88.4578 34.408 89.2258 34.184 89.8018 33.736C90.3778 33.2667 90.8364 32.648 91.1778 31.88ZM105.089 28.776C105.153 28.6053 105.377 27.9867 105.761 26.92C106.166 25.8533 106.539 25.0427 106.881 24.488C107.435 23.6133 107.926 23.176 108.353 23.176C108.95 23.176 109.409 23.2933 109.729 23.528C110.049 23.7413 110.209 24.0507 110.209 24.456C110.209 24.648 110.123 24.9147 109.953 25.256C109.803 25.5973 109.718 25.8 109.697 25.864C108.843 27.7413 108.075 29.7573 107.393 31.912L106.721 34.408C106.465 35.2187 106.027 35.88 105.409 36.392C104.79 36.8827 104.065 37.128 103.233 37.128C102.486 37.128 101.793 36.7867 101.153 36.104C100.769 35.5067 100.363 34.7493 99.9368 33.832C99.5314 32.9147 99.1794 32.0187 98.8808 31.144L97.7608 27.784C97.5261 27.1227 97.3341 26.5573 97.1848 26.088C97.0568 25.6187 96.9928 25.192 96.9928 24.808C96.9714 24.36 97.0994 23.9973 97.3768 23.72C97.6541 23.4427 98.0381 23.304 98.5288 23.304C99.0834 23.304 99.4781 23.4213 99.7128 23.656C99.9474 23.8693 100.161 24.2107 100.353 24.68C100.438 25.1707 100.673 26.1733 101.057 27.688L101.281 28.584C101.473 29.3093 101.718 30.0453 102.017 30.792C102.315 31.5387 102.614 32.2533 102.913 32.936C102.87 32.8293 103.019 33.1813 103.361 33.992C103.574 33.3733 103.819 32.616 104.097 31.72L105.089 28.776ZM124.637 37.128C123.912 37.128 123.357 37.0213 122.973 36.808C122.589 36.5733 122.173 36.1467 121.725 35.528C121.171 36.0187 120.339 36.4133 119.229 36.712C118.141 37.0107 117.203 37.16 116.413 37.16C115.112 37.16 114.056 36.808 113.245 36.104C112.456 35.3787 112.061 34.3227 112.061 32.936C112.061 32.3387 112.221 31.7947 112.541 31.304C112.883 30.792 113.32 30.344 113.853 29.96C114.451 29.5547 115.155 29.2347 115.965 29C116.797 28.7653 117.555 28.648 118.237 28.648C119.389 28.648 120.413 28.7547 121.309 28.968V28.936C121.309 27.784 121.021 26.9947 120.445 26.568C119.891 26.12 118.995 25.896 117.757 25.896C116.968 25.896 116.285 26.248 115.709 26.952C115.496 27.2293 115.048 27.368 114.365 27.368C114.024 27.368 113.768 27.2293 113.597 26.952C113.448 26.6533 113.373 26.3547 113.373 26.056C113.373 25.4373 113.629 24.904 114.141 24.456C114.675 24.008 115.315 23.6773 116.061 23.464C116.808 23.2293 117.501 23.112 118.141 23.112C118.76 23.112 119.496 23.24 120.349 23.496C121.203 23.752 121.896 24.0933 122.429 24.52C123.069 25.0747 123.56 25.7253 123.901 26.472C124.264 27.1973 124.445 27.9973 124.445 28.872C124.445 29.1493 124.424 29.5653 124.381 30.12C124.339 30.76 124.317 31.2827 124.317 31.688C124.317 31.88 124.296 32.1253 124.253 32.424C124.211 32.808 124.189 33.128 124.189 33.384C124.189 33.6613 124.275 33.928 124.445 34.184C124.616 34.44 124.851 34.6533 125.149 34.824C125.427 34.9733 125.608 35.1333 125.693 35.304C125.779 35.4747 125.821 35.6667 125.821 35.88C125.821 36.0933 125.683 36.36 125.405 36.68C125.149 36.9787 124.893 37.128 124.637 37.128ZM118.237 31.016C117.405 31.016 116.669 31.176 116.029 31.496C115.389 31.816 115.069 32.3813 115.069 33.192C115.069 33.5973 115.208 33.9387 115.485 34.216C115.784 34.4933 116.104 34.632 116.445 34.632C117.363 34.632 118.131 34.536 118.749 34.344C119.368 34.152 120.115 33.8 120.989 33.288C121.096 32.9467 121.16 32.4667 121.181 31.848C121.181 31.6133 121.192 31.432 121.213 31.304C120.061 31.112 119.069 31.016 118.237 31.016ZM144.451 19.816C144.771 20.2 144.995 20.5093 145.123 20.744C145.251 20.9787 145.315 21.2027 145.315 21.416C145.315 21.672 145.145 21.9707 144.803 22.312C144.483 22.6533 144.163 22.824 143.843 22.824C143.417 22.824 143.075 22.76 142.819 22.632C142.563 22.504 142.35 22.3013 142.179 22.024C141.774 21.384 141.305 20.8187 140.771 20.328C140.238 19.816 139.523 19.56 138.627 19.56C137.753 19.56 136.771 19.7627 135.683 20.168C134.595 20.5733 133.795 21.0747 133.283 21.672C132.131 23.08 131.555 24.9467 131.555 27.272C131.555 29.128 132.131 30.7173 133.283 32.04C134.499 33.4053 136.035 34.088 137.891 34.088C138.745 34.088 139.673 33.9387 140.675 33.64C141.699 33.32 142.51 32.808 143.107 32.104H143.075C143.459 31.6987 143.939 31.496 144.515 31.496C144.857 31.496 145.177 31.6453 145.475 31.944C145.795 32.2427 145.955 32.5413 145.955 32.84C145.955 33.16 145.902 33.448 145.795 33.704C145.71 33.9387 145.539 34.2053 145.283 34.504C144.409 35.464 143.289 36.136 141.923 36.52C140.579 36.8827 139.043 37.064 137.315 37.064C135.886 37.064 134.51 36.7227 133.187 36.04C131.886 35.3573 130.809 34.4933 129.955 33.448C129.529 32.8293 129.113 31.944 128.707 30.792C128.323 29.6187 128.131 28.6693 128.131 27.944C128.131 26.088 128.409 24.328 128.963 22.664C129.539 20.9787 130.393 19.6347 131.523 18.632C132.27 17.9493 133.347 17.4373 134.755 17.096C136.163 16.7547 137.454 16.584 138.627 16.584C139.566 16.584 140.366 16.7227 141.027 17C141.71 17.256 142.297 17.608 142.787 18.056C143.278 18.4827 143.833 19.0693 144.451 19.816ZM161.398 26.728C161.568 27.0267 161.707 27.464 161.814 28.04C161.92 28.5947 161.974 29.096 161.974 29.544C161.974 30.1413 161.878 30.888 161.686 31.784C161.494 32.6587 161.334 33.2453 161.206 33.544C160.054 35.9333 157.835 37.128 154.55 37.128C153.504 37.128 152.48 36.7867 151.478 36.104C150.475 35.4 149.76 34.5787 149.334 33.64L149.11 33C149.088 32.9147 148.971 32.5947 148.758 32.04C148.566 31.464 148.47 31.0267 148.47 30.728C148.47 29.8533 148.683 28.84 149.11 27.688C149.536 26.536 150.027 25.6187 150.582 24.936C150.944 24.4453 151.638 24.0293 152.662 23.688C153.686 23.3253 154.592 23.144 155.382 23.144C156.854 23.144 158.038 23.4213 158.934 23.976C159.851 24.5307 160.672 25.448 161.398 26.728ZM158.454 31.88C158.539 31.7307 158.614 31.464 158.678 31.08C158.742 30.696 158.774 30.248 158.774 29.736C158.774 29.1173 158.656 28.5093 158.422 27.912C158.208 27.3147 157.888 26.8027 157.462 26.376C157.44 26.3333 157.366 26.2693 157.238 26.184C157.11 26.0773 156.907 25.9813 156.63 25.896C156.352 25.7893 156 25.736 155.574 25.736C154.742 25.736 154.038 25.9813 153.462 26.472C152.886 26.9627 152.448 27.5707 152.15 28.296C151.872 29.0213 151.734 29.736 151.734 30.44C151.734 30.632 151.798 31.0267 151.926 31.624C152.054 32.2213 152.15 32.6053 152.214 32.776C152.384 33.0747 152.715 33.4267 153.206 33.832C153.696 34.216 154.251 34.408 154.87 34.408C155.83 34.408 156.576 34.184 157.11 33.736C157.664 33.288 158.112 32.6693 158.454 31.88ZM178.288 36.84C177.84 36.84 177.413 36.712 177.008 36.456C176.624 36.1787 176.282 35.8907 175.984 35.592C175.685 35.272 175.482 35.0587 175.376 34.952C174.928 35.592 174.277 36.1147 173.424 36.52C172.57 36.9253 171.749 37.128 170.96 37.128C169.744 37.128 168.666 36.872 167.728 36.36C166.789 35.848 166.064 35.1547 165.552 34.28C165.04 33.384 164.784 32.392 164.784 31.304C164.784 30.28 164.901 29.2987 165.136 28.36C165.392 27.4 165.733 26.6 166.16 25.96C166.736 25.1493 167.504 24.5093 168.464 24.04C169.445 23.5707 170.416 23.336 171.376 23.336C171.952 23.336 172.496 23.4427 173.008 23.656C173.52 23.8693 173.968 24.136 174.352 24.456C174.352 23.048 174.341 22.1627 174.32 21.8V21.096C174.32 19.0907 174.448 17.6293 174.704 16.712C174.938 15.816 175.514 15.368 176.432 15.368C176.922 15.368 177.285 15.4747 177.52 15.688C177.754 15.9013 177.872 16.3067 177.872 16.904C177.872 17.1173 177.818 17.704 177.712 18.664C177.477 21.0533 177.36 23.4427 177.36 25.832C177.36 27.8373 177.392 29.3307 177.456 30.312C177.541 31.272 177.701 32.04 177.936 32.616C178.192 33.192 178.586 33.704 179.12 34.152C179.44 34.408 179.664 34.6213 179.792 34.792C179.941 34.9627 180.016 35.1867 180.016 35.464C180.016 35.8053 179.845 36.1253 179.504 36.424C179.162 36.7013 178.757 36.84 178.288 36.84ZM170.864 34.536C171.994 34.536 172.826 34.184 173.36 33.48C173.914 32.7547 174.192 31.8373 174.192 30.728L174.16 28.936C174.138 28.5947 174.128 28.136 174.128 27.56C173.338 26.6213 172.485 26.152 171.568 26.152C170.949 26.152 170.362 26.312 169.808 26.632C169.274 26.952 168.837 27.4213 168.496 28.04C168.133 28.744 167.952 29.8107 167.952 31.24C167.952 32.2213 168.24 33.0213 168.816 33.64C169.392 34.2373 170.074 34.536 170.864 34.536ZM181.909 30.216C181.909 29.4053 182.058 28.5947 182.357 27.784C182.655 26.952 183.05 26.1947 183.541 25.512C184.031 24.8293 184.81 24.2747 185.877 23.848C186.943 23.4 187.893 23.176 188.725 23.176C189.578 23.176 190.442 23.2933 191.317 23.528C192.213 23.7627 192.831 24.1253 193.173 24.616C193.962 25.7253 194.357 26.8133 194.357 27.88C194.357 28.456 194.229 28.9467 193.973 29.352C193.738 29.7573 193.397 30.1947 192.949 30.664C192.586 31.048 192.01 31.304 191.221 31.432C190.453 31.56 189.685 31.624 188.917 31.624C188.426 31.624 187.829 31.5813 187.125 31.496C186.421 31.3893 185.738 31.2613 185.077 31.112C185.119 31.5387 185.226 31.9547 185.397 32.36C185.567 32.7653 185.77 33.0747 186.005 33.288C186.431 33.6933 186.869 33.9493 187.317 34.056C187.786 34.1627 188.383 34.216 189.109 34.216C189.877 34.216 190.591 34.088 191.253 33.832C191.786 33.64 192.223 33.544 192.565 33.544C192.97 33.544 193.279 33.672 193.493 33.928C193.706 34.1627 193.813 34.472 193.813 34.856C193.813 35.3893 193.503 35.8267 192.885 36.168C192.266 36.5093 191.551 36.7653 190.741 36.936C189.951 37.0853 189.311 37.16 188.821 37.16C187.818 37.16 186.847 36.9787 185.909 36.616C184.97 36.2533 184.191 35.7413 183.573 35.08C183.061 34.4827 182.655 33.768 182.357 32.936C182.058 32.0827 181.909 31.176 181.909 30.216ZM188.885 25.896C188.415 25.896 187.946 25.992 187.477 26.184C187.007 26.3547 186.623 26.6 186.325 26.92C185.941 27.3253 185.674 27.656 185.525 27.912C185.397 28.1467 185.311 28.4773 185.269 28.904C185.802 29.0747 186.911 29.16 188.597 29.16C189.514 29.16 190.218 29.0213 190.709 28.744C191.221 28.4667 191.477 28.104 191.477 27.656C191.477 27.208 191.199 26.8027 190.645 26.44C190.09 26.0773 189.503 25.896 188.885 25.896Z" fill="white"/>
</svg>
