<svg width="43" height="42" viewBox="0 0 43 42" fill="none" xmlns="http://www.w3.org/2000/svg">
<path d="M40.3077 28.8077L40.3077 35.0001C40.3075 37.4853 38.2929 39.5001 35.8077 39.5001L7.00005 39.5001C4.51484 39.5001 2.50017 37.4853 2.50005 35.0001L2.50005 7.2677C2.50019 4.8169 4.4618 2.8167 6.91216 2.76868L13.5079 2.63977C16.0272 2.59039 18.0958 4.61901 18.0958 7.13879L18.0958 14.6144C18.0958 15.6354 18.2612 16.6497 18.584 17.6183L18.6251 17.7413C19.6522 20.8226 22.1821 23.1655 25.3331 23.9532L25.6153 24.0236C26.3686 24.2119 27.1425 24.3077 27.919 24.3077L35.8077 24.3077C38.2929 24.3077 40.3077 26.3225 40.3077 28.8077Z" stroke="white" stroke-width="5"/>
<rect x="40.3077" y="2.5" width="15.1923" height="15.1923" rx="4.5" transform="rotate(90 40.3077 2.5)" stroke="white" stroke-width="5"/>
</svg>
